<?xml version="1.0" encoding="UTF-8"?>
<!-- Created with Inkscape (http://www.inkscape.org/) -->
<svg version="1.1" viewBox="0 0 1 .6126" fill='current' stroke='current' xmlns="http://www.w3.org/2000/svg">
 <g transform="translate(-.0012911 -.096006)">
  <g stroke-width=".0038976" aria-label="Hi!">
   <path d="m0.033943 0.64687s0.0014967-0.008232 0.002245-0.016463c0.002245-0.025443 0.0052383-0.029933 0.00449-0.005987-0.0014967 0.03143 0.002245 0.033675 0.006735 0.003742 0.0014967-0.012722 0.023198-0.083065 0.024695-0.081568 7.4833e-4 7.4833e-4 -0.0029933 0.011973-0.0074833 0.026192-0.0097283 0.029933-0.015715 0.059118-0.014967 0.073336 0 0.00898 7.4833e-4 0.010477 0.0052383 0.012722 0.0074833 0.002993 0.016463 7.4833e-4 0.020205-0.005238 0.002245-0.002993 0.0059866-0.011973 0.0082316-0.020205 0.011225-0.030682 0.056125-0.13694 0.060615-0.14143 0.003742-0.003742 0.07184-0.017212 0.11674-0.021702l0.009728-0.001497-0.005987 0.01796c-0.041158 0.1115-0.054628 0.17361-0.0449 0.19531 0.002993 0.005238 0.005987 0.008232 0.017212 0.01347 0.012722 0.005987 0.012722 0.006735 0.018708 0.002993 0.002993-7.4833e-4 0.005987-0.001497 0.006735-7.4833e-4 7.4833e-4 7.4833e-4 0.002993 7.4833e-4 0.00449 7.4833e-4 0.002245-7.4833e-4 0.003742 0 0.003742 0.001497 0 0.002245 0.00449 0.005238 0.011225 0.007483 0.003742 0.001497 0.005238 0.001497 0.006735 0 7.4833e-4 -0.001497 0.001497-0.002245 0.002245-0.001497 0.002993 0.001497 0.007483-0.006735 0.009728-0.019457 0.00449-0.026192 0.028437-0.08531 0.065853-0.16314 0.071091-0.14817 0.09429-0.19606 0.113-0.23423 0.011973-0.023198 0.021702-0.046396 0.02245-0.050138 0.001497-0.006735-7.4833e-4 -0.026192-0.002993-0.028437-7.4833e-4 0-0.002245 7.4833e-4 -0.003742 0.001497-0.002245 0.002245-0.002993 0.002245-0.002993-0.002245 0-0.005238-0.005987-0.014967-0.008232-0.012722-7.4833e-4 7.4833e-4 -0.001497 0-0.002993-0.001497-0.001497-0.002245-0.002245-0.002245-0.005987-7.4833e-4 -0.003742 0.002245-0.003742 0.002245-0.003742-0.002993 0.001497-0.005238 7.4833e-4 -0.005238-0.003742-0.005238-0.002245 7.4833e-4 -0.00449 7.4833e-4 -0.00449 0 0-0.001497-7.4834e-4 -0.001497-0.001497-0.001497-7.4833e-4 7.4833e-4 -0.001497-7.4833e-4 -7.4833e-4 -0.003742 0-0.002245 0-0.003742-0.001497-0.003742-7.4833e-4 0-0.002245-0.003742-0.003742-0.006735-0.003742-0.010477-0.01796-0.01347-0.032927-0.005987-0.017212 0.008232-0.03143 0.029933-0.07184 0.11674-0.012722 0.028437-0.029933 0.065853-0.037416 0.083065l-0.014218 0.03143h-0.113l0.002245-0.005238c0.001497-0.003742 0.01796-0.043403 0.037416-0.088303s0.037417-0.087555 0.039662-0.09429c0.003742-0.012722 0.00449-0.023947 7.4833e-4 -0.024695-0.003742-0.001497-0.016463 0.020953-0.023198 0.038913-0.002245 0.005987-0.003742 0.009728-0.00449 0.009728-0.001497-0.001497 0.00898-0.029185 0.015715-0.041158 0.002993-0.005987 0.005238-0.011973 0.005238-0.014218 0-0.005987-0.005987-0.012722-0.009728-0.011225-0.002245 7.4833e-4 -0.002993 0-0.002993-0.003742 0-0.002993 0-0.002993-0.002993-7.4833e-4 -0.00449 0.003742-0.005987 0.002245-0.005987-0.00449 0-0.007483-0.005238-0.00898-0.010477-0.002245l-0.00449 0.005238 7.4833e-4 -0.005987c7.4833e-4 -0.003742 0.001497-0.009728 0.002245-0.011973 0.001497-0.005238 0.001497-0.005987-0.001497-0.003742-0.002245 0.002245-0.002993 0.002245-0.00449-0.001497 0-0.002245-7.4833e-4 -0.00449 0-0.00449 0.001497-0.002245-0.002245-0.011973-0.005987-0.012722-0.001497 0-0.003742 0-0.005238 7.4834e-4 -0.002245 0.002245-0.002245 0.001497-0.001497 0 0.002993-0.006735-0.002993-0.005238-0.008232 0.002245-0.005987 0.00898-0.006735 0.00898-0.002245 0 0.001497-0.002993 0.002245-0.006735 0.001497-0.006735-0.002245-0.002993-0.014218 0.003742-0.017212 0.00898-0.02993 0.047896-0.092042 0.18709-0.12497 0.27913-0.020953 0.059118-0.042655 0.13545-0.050887 0.17511-0.00449 0.023947-0.00449 0.045648-7.4833e-4 0.052383 0.0059866 0.009728 0.025443 0.020205 0.029933 0.015715zm0.22151 0.034423c-7.4834e-4 0-0.001497-0.003742-0.001497-0.007483 0-0.009728 7.4833e-4 -0.00898 0.002993 7.4833e-4 0 0.003742 0 0.006735-0.001497 0.006735zm0.012722-0.002245c-7.4833e-4 0.006735-7.4833e-4 0.006735-0.002245 0.001497-7.4833e-4 -0.002993-7.4833e-4 -0.00898 7.4833e-4 -0.01347l7.4833e-4 -0.00898 7.4833e-4 0.006735c7.4833e-4 0.003742 7.4833e-4 0.009728 1e-8 0.014218zm0.18858-0.45274c0 7.4833e-4 -0.001497 0.002993-0.003742 0.005987-0.001497 0.002245-0.003742 0.003742-0.003742 0.002993 0-0.002245 0.007483-0.011973 0.007483-0.00898zm-0.27015-0.027688c0.003742-0.012722 0.017212-0.039662 0.018708-0.039662 0.003742 0 0.003742 0-0.005238 0.016463-0.007483 0.015715-0.015715 0.029185-0.01347 0.023198zm0.003742 0.01796c0.015715-0.03592 0.024695-0.051635 0.027688-0.051635 0.001497 0-0.002245 0.00898-0.014218 0.032178-0.025443 0.051635-0.03143 0.059866-0.01347 0.019457zm-0.002993 0.045648c0.015715-0.03592 0.037416-0.081568 0.039662-0.080071 7.4833e-4 7.4833e-4 0 0.002993-0.001497 0.005238s-0.00449 0.00898-0.007483 0.015715c-0.00449 0.011225-0.041906 0.089051-0.041906 0.086806 0-7.4833e-4 0.005238-0.01347 0.011225-0.027688zm-0.014967 0.035172c0.001497-0.001497 0.002245-0.002245 0.002245-7.4833e-4 0 7.4833e-4 -7.4833e-4 0.002993-0.002245 0.00449-7.4833e-4 0.001497-0.001497 0.001497-0.001497 7.4833e-4 0-0.001497 7.4833e-4 -0.002993 0.001497-0.00449zm-0.12946 0.30158c7.4833e-4 0 7.4833e-4 0.001497 0 0.002993 0 0.001497-7.4833e-4 0.001497-0.0014967-7.4833e-4 0-0.002245 7.4833e-4 -0.003742 0.0014967-0.002245zm-0.012722 0.021702c7.4833e-4 0.001497 7.4833e-4 0.00449 0 0.006735-7.4833e-4 0.001497-7.4833e-4 0-7.4833e-4 -0.002993 0-0.003742 0-0.005238 7.4833e-4 -0.003742z"/>
   <path d="m0.66853 0.23604c-0.001497 7.4833e-4 -0.003742 0.005238-0.00449 0.009728-0.001497 0.005987-0.002993 0.010477-0.003742 0.011225-0.001497 0.001497-7.4833e-4 -0.001497 0.002245-0.016463 0.001497-0.005987 7.4834e-4 -0.007483-0.003742-0.011973l-0.005238-0.005238-0.002993 0.006735-0.003742 0.006735v-0.007483c0-0.00898-0.002245-0.007483-0.008232 0.00449-0.007483 0.014967-0.009728 0.014967-0.003742 7.4833e-4 0.002993-0.00898 0.003742-0.011973 0.002245-0.01347-0.003742-0.003742-0.006735-0.002993-0.009728 0.001497-0.002245 0.002993-0.002245 0.002993-0.002993-0.003742-0.001497-0.008232-0.002993-0.00898-0.007483-0.00449-0.003742 0.002993-0.003742 0.002993-0.003742-0.00449 0-0.005987-7.4833e-4 -0.008232-0.003742-0.009728-0.00898-0.00449-0.028437 7.4833e-4 -0.036668 0.011225-0.009728 0.010477-0.092793 0.18035-0.11749 0.23947-0.023198 0.054628-0.038913 0.10177-0.041906 0.12946-0.001497 0.01347 0.003742 0.024695 0.016463 0.032927 0.016463 0.011225 0.023198 0.009728 0.02245-0.005987-0.001497-0.005238-7.4833e-4 -0.005987 7.4833e-4 -0.003742 7.4833e-4 0.002245 0.001497 0.005987 0.001497 0.009728 0 0.009728 0.003742 0.008232 0.005987-0.002245 0.001497-0.005987 0.002245-0.009728 0.002245-0.009728s7.4834e-4 0.00449 0 0.011225v0.011225l0.006735 0.002245c0.006735 0.002993 0.01347 0.001497 0.019457-0.002245 0.002245-7.4834e-4 0.011225-0.015715 0.019457-0.03143 0.00898-0.016463 0.023198-0.041906 0.03143-0.056873 0.008232-0.014967 0.03592-0.069595 0.062112-0.12048 0.025443-0.052383 0.053132-0.10626 0.060615-0.12123 0.012722-0.023947 0.014218-0.028437 0.014218-0.036668 0-0.010477-0.00449-0.02245-0.008232-0.020953z"/>
   <path d="m0.81744 0.5653c-0.003742 0.002993-0.00449 0.002245-0.005238-0.001497-7.4833e-4 -0.002993-0.002993-0.005238-0.005238-0.005987-0.006735-0.002245-0.017212-0.002245-0.019457 0-0.001497 7.4833e-4 -0.002993 7.4833e-4 -0.005987-0.001497-0.002993-0.002993-0.003742-0.002993-0.00898 0-0.005987 0.002993-0.00898 0.001497-0.00898-0.00449 0-0.002993-0.002245-0.002993-0.007483 7.4833e-4 -0.00449 0.002993-0.00449 0.002993-0.006735-0.006735-7.4833e-4 -0.00449-0.001497-0.005238-0.00898-0.005238-0.009728 0-0.021702 0.007483-0.03592 0.02245-0.02245 0.024695-0.039662 0.050138-0.046396 0.069595-0.005987 0.016463-0.00449 0.023198 0.006735 0.032927 0.00449 0.00449 0.009728 0.008232 0.010477 0.008232 0.001497 0 0.003742 7.4833e-4 0.005238 0.002245 0.002245 0.003742 0.010477 0.003742 0.011225 7.4833e-4 7.4833e-4 -0.002245 0.001497-0.002245 0.002993 0 0.001497 0.002245 0.002245 0.001497 0.00449-0.003742 0.001497-0.00449 0.002993-0.005238 0.002993-0.002993 7.4834e-4 0.001497 7.4834e-4 0.00449 7.4834e-4 0.005987 0 7.4833e-4 0.002245 0.001497 0.00449 0.001497 0.002993 0 0.00449 7.4833e-4 0.005987 0.003742 0.001497 0.002993 0.00449 0.005238 0.010477 0.007483 0.01796 0.005987 0.029933 7.4833e-4 0.042655-0.01796 0.005238-0.006735 0.014218-0.020205 0.020205-0.028437 0.005987-0.00898 0.017212-0.023198 0.026192-0.032178 0.008232-0.00898 0.016463-0.017212 0.017212-0.018708 0.002993-0.00449 0.001497-0.016463-0.002245-0.02245-0.00449-0.007483-0.005238-0.007483-0.010476-0.003742zm0.1811-0.4243c-0.002993-0.007483-0.00449-0.007483-0.011225-0.002993l-0.005238 0.00449 0.001497-0.005987c0.001497-0.006735-0.001497-0.011225-0.009728-0.011973-0.002245 0-0.005987-7.4833e-4 -0.007483-0.002245-0.001497-7.4833e-4 -0.003742 0-0.005987 0.002993l-0.00449 0.002993v-0.00449c0-0.003742-7.4833e-4 -0.005238-0.003742-0.005987-0.002245 0-0.005987 0.001497-0.008232 0.002993-0.001497 0.001497-0.003742 0.002993-0.003742 0.002245 0-7.4833e-4 -7.4833e-4 -0.003742-0.001497-0.006735 0-0.003742-7.4833e-4 -0.006735-7.4833e-4 -0.007483 0 0-0.003742 0.001497-0.006735 0.00449l-0.005987 0.005238 0.001497-0.008232c0.001497-0.011225-0.002245-0.014967-0.011973-0.014218-0.01796 0.002245-0.027688 0.011225-0.048642 0.047893-0.051635 0.090548-0.099528 0.19382-0.12347 0.26416-0.009728 0.030682-0.005987 0.045648 0.014967 0.063608 0.008232 0.006735 0.012722 0.00898 0.016463 0.00898 0.005238 0 0.005238-7.4833e-4 0.005987-0.008232 0.001497-0.00449 0.003742-0.014967 0.005987-0.02245 0.002245-0.007483 0.00449-0.011225 0.003742-0.008232-0.002245 0.011973-0.005987 0.036668-0.005987 0.038913 0 0.002993 0 0.002993 0.002245 7.4833e-4 0.003742-0.003742 0.005987-0.002245 0.005987 0.002993 0 0.003742 0.001497 0.005238 0.005987 0.007483 0.011225 0.003742 0.023947 0.002993 0.03143-0.001497 0.011225-0.005987 0.01796-0.017212 0.026192-0.043403 0.01796-0.050138 0.0449-0.113 0.07633-0.17361 0.029933-0.05837 0.0449-0.083813 0.065105-0.1115 0.005238-0.006735 0.005238-0.011973 0.001497-0.020953zm-0.24695 0.29858c0 7.4833e-4 -7.4833e-4 0-7.4833e-4 -0.002245 0-0.002993 7.4833e-4 -0.003742 7.4833e-4 -0.002245 7.4833e-4 7.4833e-4 7.4833e-4 0.002993 0 0.00449zm0.02245 0.02694c-0.002245 0-0.002245-0.005987 0-0.012722 0.001497-0.003742 0.001497-0.002993 0.002245 0.00449 0 0.00449-7.4833e-4 0.008232-0.002245 0.008232zm0.055376-0.087555c-0.002993 0.005987-0.009728 0.024695-0.015715 0.041906-0.00898 0.026192-0.014967 0.041158-0.015715 0.038165 0-0.00449 0.032927-0.093541 0.034423-0.091296 7.4833e-4 0-7.4833e-4 0.005238-0.002993 0.011225zm0.005987-0.015715c-0.001497 0.001497-0.002245 0.002245-0.002245 0.001497 0-0.001497 7.4833e-4 -0.003742 0.002245-0.005238 7.4834e-4 -0.001497 0.001497-0.002245 0.001497-7.4833e-4 0 7.4833e-4 -7.4833e-4 0.002993-0.001497 0.004489z"/>
  </g>
 </g>
</svg>
