<?xml version="1.0" encoding="UTF-8" standalone="no"?>
<!DOCTYPE svg PUBLIC "-//W3C//DTD SVG 20010904//EN"
              "http://www.w3.org/TR/2001/REC-SVG-20010904/DTD/svg10.dtd">

<svg xmlns="http://www.w3.org/2000/svg"
     width="2.96in" height="3.08333in"
     viewBox="0 0 888 925">
  <defs>
    <clipPath id="logo-clip" clipPathUnits="objectBoundingBox">
      <path
        d="M 0.46959,0.17081
           C 0.46959,0.17081 0.46959,0.64864
             0.46959,0.64864 0.46959,0.64864
             0.60135,0.64864 0.60135,0.64864
             0.60135,0.64864 0.60135,0.46270
             0.60135,0.46270 0.60135,0.46270
             0.68628,0.57729 0.68628,0.57729
             0.68628,0.57729 0.73310,0.64108
             0.73310,0.64108 0.73310,0.64108
             0.73536,0.64108 0.73536,0.64108
             0.73536,0.64108 0.75932,0.60864
             0.75932,0.60864 0.75932,0.60864
             0.82479,0.52000 0.82479,0.52000
             0.82479,0.52000 0.85119,0.48432
             0.85119,0.48432 0.85119,0.48432
             0.86599,0.46270 0.86599,0.46270
             0.86599,0.46270 0.86711,0.48432
             0.86711,0.48432 0.86711,0.48432
             0.86711,0.52216 0.86711,0.52216
             0.86711,0.52216 0.86711,0.64864
             0.86711,0.64864 0.86711,0.64864
             0.99887,0.64864 0.99887,0.64864
             0.99887,0.64864 0.99887,0.17081
             0.99887,0.17081 0.99887,0.17081
             0.95495,0.17081 0.95495,0.17081
             0.95269,0.17081 0.94918,0.17068
             0.94711,0.17145 0.94277,0.17307
             0.93541,0.18409 0.93243,0.18810
             0.93243,0.18810 0.89704,0.23459
             0.89704,0.23459 0.89704,0.23459
             0.78842,0.37729 0.78842,0.37729
             0.78842,0.37729 0.75548,0.42054
             0.75548,0.42054 0.75046,0.42698
             0.73824,0.44210 0.73536,0.44864
             0.73536,0.44864 0.73310,0.44864
             0.73310,0.44864 0.73046,0.44210
             0.72030,0.42993 0.71550,0.42378
             0.71550,0.42378 0.68260,0.38054
             0.68260,0.38054 0.68260,0.38054
             0.57159,0.23459 0.57159,0.23459
             0.57159,0.23459 0.53532,0.18702
             0.53532,0.18702 0.53219,0.18296
             0.52591,0.17314 0.52135,0.17145
             0.51926,0.17068 0.51578,0.17081
             0.51351,0.17081 0.51351,0.17081
             0.46959,0.17081 0.46959,0.17081 Z
           M 0.91666,0.14378
           C 0.91666,0.14378 0.88400,0.11783
             0.88400,0.11783 0.86793,0.10560
             0.85075,0.09410 0.83333,0.08369
             0.77216,0.04714 0.69949,0.01917
             0.62837,0.00729 0.62837,0.00729
             0.57319,0.00098 0.57319,0.00098
             0.57319,0.00098 0.55968,0.00000
             0.55968,0.00000 0.55968,0.00000
             0.52477,0.00000 0.52477,0.00000
             0.52477,0.00000 0.51238,0.00103
             0.51238,0.00103 0.48477,0.00219
             0.45731,0.00560 0.43018,0.01081
             0.32181,0.03161 0.21873,0.08183
             0.14193,0.15891 0.08451,0.21655
             0.04255,0.28659 0.01979,0.36324
             0.01069,0.39388 0.00457,0.42553
             0.00215,0.45729 0.00215,0.45729
             0.00112,0.46810 0.00112,0.46810
             0.00112,0.46810 0.00000,0.49081
             0.00000,0.49081 0.00000,0.49081
             0.00000,0.51027 0.00000,0.51027
             0.00000,0.51027 0.00112,0.52648
             0.00112,0.52648 0.00112,0.52648
             0.00318,0.55459 0.00318,0.55459
             0.00882,0.60870 0.02400,0.66085
             0.04764,0.71027 0.05610,0.72794
             0.06680,0.74574 0.07764,0.76216
             0.15225,0.87509 0.27381,0.95397
             0.40878,0.98473 0.44208,0.99232
             0.47493,0.99677 0.50900,0.99901
             0.50900,0.99901 0.52027,1.00000
             0.52027,1.00000 0.55078,1.00033
             0.58119,1.00007 0.61148,0.99645
             0.69143,0.98688 0.76622,0.96113
             0.83445,0.92005 0.85641,0.90683
             0.87513,0.89370 0.89527,0.87805
             0.89527,0.87805 0.90990,0.86600
             0.90990,0.86600 0.91141,0.86468
             0.91458,0.86220 0.91520,0.86035
             0.91637,0.85692 0.91099,0.85129
             0.90893,0.84864 0.90893,0.84864
             0.88442,0.81729 0.88442,0.81729
             0.88442,0.81729 0.79658,0.70486
             0.79658,0.70486 0.79658,0.70486
             0.77462,0.67675 0.77462,0.67675
             0.77281,0.67443 0.76889,0.66835
             0.76566,0.66831 0.76259,0.66828
             0.75583,0.67459 0.75337,0.67661
             0.75337,0.67661 0.72297,0.69929
             0.72297,0.69929 0.69381,0.71962
             0.65523,0.73921 0.62049,0.74872
             0.60279,0.75357 0.58477,0.75705
             0.56644,0.75887 0.56644,0.75887
             0.55630,0.75887 0.55630,0.75887
             0.55630,0.75887 0.54504,0.76000
             0.54504,0.76000 0.54504,0.76000
             0.52927,0.75896 0.52927,0.75896
             0.42400,0.75455 0.32601,0.68731
             0.28693,0.59351 0.27796,0.57196
             0.26942,0.53995 0.26914,0.51675
             0.26893,0.49847 0.26885,0.48082
             0.27189,0.46270 0.28005,0.41393
             0.30398,0.36696 0.33906,0.33081
             0.35840,0.31088 0.37984,0.29480
             0.40427,0.28109 0.40427,0.28109
             0.42004,0.27277 0.42004,0.27277
             0.42283,0.27150 0.42733,0.27021
             0.42903,0.26768 0.43042,0.26560
             0.43018,0.26190 0.43018,0.25945
             0.43018,0.25945 0.43018,0.17405
             0.43018,0.17405 0.43021,0.15125
             0.44630,0.13325 0.47072,0.13297
             0.47072,0.13297 0.52027,0.13297
             0.52027,0.13297 0.54583,0.13309
             0.55679,0.15074 0.57014,0.16864
             0.57014,0.16864 0.61293,0.22486
             0.61293,0.22486 0.61293,0.22486
             0.63871,0.25814 0.63871,0.25814
             0.64243,0.26150 0.65347,0.26500
             0.65878,0.26718 0.65878,0.26718
             0.69594,0.28478 0.69594,0.28478
             0.71436,0.29490 0.73122,0.30590
             0.74774,0.31870 0.75104,0.32126
             0.76163,0.33152 0.76557,0.33044
             0.76788,0.32981 0.77122,0.32511
             0.77275,0.32324 0.77275,0.32324
             0.79030,0.30162 0.79030,0.30162
             0.79030,0.30162 0.85609,0.22054
             0.85609,0.22054 0.85609,0.22054
             0.89626,0.17081 0.89626,0.17081
             0.90123,0.16455 0.91364,0.15004
             0.91666,0.14378 Z"/>
    </clipPath>
  </defs>
  <path id="Selection #1"
        fill="current" stroke="current" stroke-width="current"
        d="M 417.00,158.00
           C 417.00,158.00 417.00,600.00 417.00,600.00
             417.00,600.00 534.00,600.00 534.00,600.00
             534.00,600.00 534.00,428.00 534.00,428.00
             534.00,428.00 609.42,534.00 609.42,534.00
             609.42,534.00 651.00,593.00 651.00,593.00
             651.00,593.00 653.00,593.00 653.00,593.00
             653.00,593.00 674.28,563.00 674.28,563.00
             674.28,563.00 732.42,481.00 732.42,481.00
             732.42,481.00 755.86,448.00 755.86,448.00
             755.86,448.00 769.00,428.00 769.00,428.00
             769.00,428.00 770.00,448.00 770.00,448.00
             770.00,448.00 770.00,483.00 770.00,483.00
             770.00,483.00 770.00,600.00 770.00,600.00
             770.00,600.00 887.00,600.00 887.00,600.00
             887.00,600.00 887.00,158.00 887.00,158.00
             887.00,158.00 848.00,158.00 848.00,158.00
             845.99,158.00 842.88,157.88 841.04,158.60
             837.18,160.09 830.65,170.29 828.00,174.00
             828.00,174.00 796.58,217.00 796.58,217.00
             796.58,217.00 700.12,349.00 700.12,349.00
             700.12,349.00 670.87,389.00 670.87,389.00
             666.41,394.96 655.56,408.95 653.00,415.00
             653.00,415.00 651.00,415.00 651.00,415.00
             648.65,408.95 639.63,397.69 635.37,392.00
             635.37,392.00 606.15,352.00 606.15,352.00
             606.15,352.00 507.58,217.00 507.58,217.00
             507.58,217.00 475.37,173.00 475.37,173.00
             472.59,169.24 467.01,160.16 462.96,158.60
             461.11,157.88 458.02,158.00 456.00,158.00
             456.00,158.00 417.00,158.00 417.00,158.00 Z
           M 814.00,133.00
           C 814.00,133.00 785.00,109.00 785.00,109.00
             770.73,97.68 755.47,87.05 740.00,77.42
             685.68,43.61 621.15,17.74 558.00,6.75
             558.00,6.75 509.00,0.91 509.00,0.91
             509.00,0.91 497.00,0.00 497.00,0.00
             497.00,0.00 466.00,0.00 466.00,0.00
             466.00,0.00 455.00,0.96 455.00,0.96
             430.48,2.03 406.10,5.18 382.00,10.00
             285.77,29.24 194.24,75.70 126.04,147.00
             75.05,200.31 37.79,265.10 17.58,336.00
             9.50,364.34 4.06,393.62 1.91,423.00
             1.91,423.00 1.00,433.00 1.00,433.00
             1.00,433.00 0.00,454.00 0.00,454.00
             0.00,454.00 0.00,472.00 0.00,472.00
             0.00,472.00 1.00,487.00 1.00,487.00
             1.00,487.00 2.83,513.00 2.83,513.00
             7.84,563.05 21.32,611.29 42.31,657.00
             49.82,673.35 59.32,689.81 68.95,705.00
             135.20,809.46 243.15,882.43 363.00,910.88
             392.57,917.90 421.74,922.02 452.00,924.09
             452.00,924.09 462.00,925.00 462.00,925.00
             489.10,925.31 516.10,925.07 543.00,921.72
             613.99,912.87 680.41,889.05 741.00,851.05
             760.50,838.82 777.12,826.68 795.00,812.20
             795.00,812.20 808.00,801.05 808.00,801.05
             809.34,799.83 812.15,797.54 812.70,795.83
             813.74,792.66 808.96,787.45 807.13,785.00
             807.13,785.00 785.37,756.00 785.37,756.00
             785.37,756.00 707.37,652.00 707.37,652.00
             707.37,652.00 687.87,626.00 687.87,626.00
             686.26,623.85 682.78,618.23 679.91,618.19
             677.18,618.16 671.18,624.00 669.00,625.87
             669.00,625.87 642.00,646.85 642.00,646.85
             616.11,665.65 581.85,683.77 551.00,692.57
             535.28,697.06 519.28,700.28 503.00,701.96
             503.00,701.96 494.00,701.96 494.00,701.96
             494.00,701.96 484.00,703.00 484.00,703.00
             484.00,703.00 470.00,702.04 470.00,702.04
             376.52,697.96 289.50,635.77 254.80,549.00
             246.83,529.07 239.25,499.46 239.00,478.00
             238.81,461.09 238.74,444.76 241.44,428.00
             248.69,382.89 269.94,339.44 301.09,306.00
             318.26,287.57 337.30,272.69 359.00,260.01
             359.00,260.01 373.00,252.32 373.00,252.32
             375.48,251.14 379.47,249.95 380.98,247.61
             382.22,245.68 382.00,242.26 382.00,240.00
             382.00,240.00 382.00,161.00 382.00,161.00
             382.03,139.91 396.32,123.26 418.00,123.00
             418.00,123.00 462.00,123.00 462.00,123.00
             484.70,123.11 494.43,139.44 506.29,156.00
             506.29,156.00 544.29,208.00 544.29,208.00
             544.29,208.00 567.18,238.78 567.18,238.78
             570.48,241.89 580.29,245.13 585.00,247.15
             585.00,247.15 618.00,263.43 618.00,263.43
             634.36,272.79 649.33,282.96 664.00,294.80
             666.93,297.17 676.33,306.66 679.83,305.66
             681.88,305.08 684.85,300.73 686.21,299.00
             686.21,299.00 701.79,279.00 701.79,279.00
             701.79,279.00 760.21,204.00 760.21,204.00
             760.21,204.00 795.88,158.00 795.88,158.00
             800.30,152.21 811.32,138.79 814.00,133.00 Z" />
</svg>
