<?xml version="1.0" encoding="UTF-8" standalone="no"?>
<!DOCTYPE svg PUBLIC "-//W3C//DTD SVG 20010904//EN"
              "http://www.w3.org/TR/2001/REC-SVG-20010904/DTD/svg10.dtd">

<svg xmlns="http://www.w3.org/2000/svg"
     width="2.96in" height="3.08333in"
     viewBox="0 0 888 925">
  <path id="Selection #1"
        fill="current" stroke="current" stroke-width="1"
        d="M 417.00,158.00
           C 417.00,158.00 417.00,600.00 417.00,600.00
             417.00,600.00 534.00,600.00 534.00,600.00
             534.00,600.00 534.00,428.00 534.00,428.00
             534.00,428.00 609.42,534.00 609.42,534.00
             609.42,534.00 651.00,593.00 651.00,593.00
             651.00,593.00 653.00,593.00 653.00,593.00
             653.00,593.00 674.28,563.00 674.28,563.00
             674.28,563.00 732.42,481.00 732.42,481.00
             732.42,481.00 755.86,448.00 755.86,448.00
             755.86,448.00 769.00,428.00 769.00,428.00
             769.00,428.00 770.00,448.00 770.00,448.00
             770.00,448.00 770.00,483.00 770.00,483.00
             770.00,483.00 770.00,600.00 770.00,600.00
             770.00,600.00 887.00,600.00 887.00,600.00
             887.00,600.00 887.00,158.00 887.00,158.00
             887.00,158.00 848.00,158.00 848.00,158.00
             845.99,158.00 842.88,157.88 841.04,158.60
             837.18,160.09 830.65,170.29 828.00,174.00
             828.00,174.00 796.58,217.00 796.58,217.00
             796.58,217.00 700.12,349.00 700.12,349.00
             700.12,349.00 670.87,389.00 670.87,389.00
             666.41,394.96 655.56,408.95 653.00,415.00
             653.00,415.00 651.00,415.00 651.00,415.00
             648.65,408.95 639.63,397.69 635.37,392.00
             635.37,392.00 606.15,352.00 606.15,352.00
             606.15,352.00 507.58,217.00 507.58,217.00
             507.58,217.00 475.37,173.00 475.37,173.00
             472.59,169.24 467.01,160.16 462.96,158.60
             461.11,157.88 458.02,158.00 456.00,158.00
             456.00,158.00 417.00,158.00 417.00,158.00 Z
           M 814.00,133.00
           C 814.00,133.00 785.00,109.00 785.00,109.00
             770.73,97.68 755.47,87.05 740.00,77.42
             685.68,43.61 621.15,17.74 558.00,6.75
             558.00,6.75 509.00,0.91 509.00,0.91
             509.00,0.91 497.00,0.00 497.00,0.00
             497.00,0.00 466.00,0.00 466.00,0.00
             466.00,0.00 455.00,0.96 455.00,0.96
             430.48,2.03 406.10,5.18 382.00,10.00
             285.77,29.24 194.24,75.70 126.04,147.00
             75.05,200.31 37.79,265.10 17.58,336.00
             9.50,364.34 4.06,393.62 1.91,423.00
             1.91,423.00 1.00,433.00 1.00,433.00
             1.00,433.00 0.00,454.00 0.00,454.00
             0.00,454.00 0.00,472.00 0.00,472.00
             0.00,472.00 1.00,487.00 1.00,487.00
             1.00,487.00 2.83,513.00 2.83,513.00
             7.84,563.05 21.32,611.29 42.31,657.00
             49.82,673.35 59.32,689.81 68.95,705.00
             135.20,809.46 243.15,882.43 363.00,910.88
             392.57,917.90 421.74,922.02 452.00,924.09
             452.00,924.09 462.00,925.00 462.00,925.00
             489.10,925.31 516.10,925.07 543.00,921.72
             613.99,912.87 680.41,889.05 741.00,851.05
             760.50,838.82 777.12,826.68 795.00,812.20
             795.00,812.20 808.00,801.05 808.00,801.05
             809.34,799.83 812.15,797.54 812.70,795.83
             813.74,792.66 808.96,787.45 807.13,785.00
             807.13,785.00 785.37,756.00 785.37,756.00
             785.37,756.00 707.37,652.00 707.37,652.00
             707.37,652.00 687.87,626.00 687.87,626.00
             686.26,623.85 682.78,618.23 679.91,618.19
             677.18,618.16 671.18,624.00 669.00,625.87
             669.00,625.87 642.00,646.85 642.00,646.85
             616.11,665.65 581.85,683.77 551.00,692.57
             535.28,697.06 519.28,700.28 503.00,701.96
             503.00,701.96 494.00,701.96 494.00,701.96
             494.00,701.96 484.00,703.00 484.00,703.00
             484.00,703.00 470.00,702.04 470.00,702.04
             376.52,697.96 289.50,635.77 254.80,549.00
             246.83,529.07 239.25,499.46 239.00,478.00
             238.81,461.09 238.74,444.76 241.44,428.00
             248.69,382.89 269.94,339.44 301.09,306.00
             318.26,287.57 337.30,272.69 359.00,260.01
             359.00,260.01 373.00,252.32 373.00,252.32
             375.48,251.14 379.47,249.95 380.98,247.61
             382.22,245.68 382.00,242.26 382.00,240.00
             382.00,240.00 382.00,161.00 382.00,161.00
             382.03,139.91 396.32,123.26 418.00,123.00
             418.00,123.00 462.00,123.00 462.00,123.00
             484.70,123.11 494.43,139.44 506.29,156.00
             506.29,156.00 544.29,208.00 544.29,208.00
             544.29,208.00 567.18,238.78 567.18,238.78
             570.48,241.89 580.29,245.13 585.00,247.15
             585.00,247.15 618.00,263.43 618.00,263.43
             634.36,272.79 649.33,282.96 664.00,294.80
             666.93,297.17 676.33,306.66 679.83,305.66
             681.88,305.08 684.85,300.73 686.21,299.00
             686.21,299.00 701.79,279.00 701.79,279.00
             701.79,279.00 760.21,204.00 760.21,204.00
             760.21,204.00 795.88,158.00 795.88,158.00
             800.30,152.21 811.32,138.79 814.00,133.00 Z" />
</svg>
